# xmcd
#
# Track frame offsets: 
#        150
#        15702
#        32183
#        48619
#        61544
#        77572
#        82668
#        99944
#
# Disc length: 1492 seconds
#
# Revision: 0
# Processed by: cddbd v1.5.2PL0 Copyright (c) Steve Scherf et al.
# Submitted via: ExactAudioCopyFreeDBPlugin 1.0
#
DISCID=4d05d208
DTITLE=Zaz - Je veux
DYEAR=1900
DGENRE=Acoustic
TTITLE0=Les passants
TTITLE1=Je veux
TTITLE2=Le long de la route
TTITLE3=La fée
TTITLE4=Ni Oui NI NON
TTITLE5=Port coton
TTITLE6=J'aime à nouveau
TTITLE7=éblouie pas la nuit
EXTD=
EXTT0=
EXTT1=
EXTT2=
EXTT3=
EXTT4=
EXTT5=
EXTT6=
EXTT7=
PLAYORDER=
